<svg viewBox="0 0 145 24" fill="none" xmlns="http://www.w3.org/2000/svg">
<path d="M36.248 3.224H42.08C43.904 3.224 45.496 3.56 46.856 4.232C48.216 4.904 49.264 5.864 50 7.112C50.736 8.36 51.104 9.832 51.104 11.528C51.104 14.312 50.288 16.424 48.656 17.864C47.04 19.288 44.784 20 41.888 20H36.248V3.224ZM42.08 16.952C43.792 16.952 45.104 16.472 46.016 15.512C46.928 14.552 47.384 13.224 47.384 11.528C47.384 10.52 47.184 9.616 46.784 8.816C46.384 8.016 45.8 7.392 45.032 6.944C44.264 6.496 43.36 6.272 42.32 6.272H39.896V16.952H42.08ZM59.747 20.36C57.539 20.36 55.803 19.832 54.539 18.776C53.275 17.704 52.643 16.208 52.643 14.288C52.643 12.384 53.203 10.88 54.323 9.776C55.459 8.672 57.075 8.12 59.171 8.12C60.547 8.12 61.715 8.376 62.675 8.888C63.635 9.4 64.363 10.112 64.859 11.024C65.355 11.92 65.603 12.936 65.603 14.072V15.536H56.099C56.355 17.008 57.731 17.744 60.227 17.744C60.963 17.744 61.723 17.68 62.507 17.552C63.291 17.424 63.971 17.248 64.547 17.024V19.568C63.987 19.808 63.267 20 62.387 20.144C61.507 20.288 60.627 20.36 59.747 20.36ZM62.171 13.184C62.123 12.416 61.835 11.824 61.307 11.408C60.779 10.976 60.051 10.76 59.123 10.76C58.211 10.76 57.491 10.976 56.963 11.408C56.435 11.84 56.147 12.432 56.099 13.184H62.171ZM67.3194 8.48H70.3674L73.4874 16.448L76.6074 8.48H79.6554L74.9034 20H72.0714L67.3194 8.48ZM82.1621 3.224H89.2181C91.1221 3.224 92.6421 3.728 93.7781 4.736C94.9141 5.728 95.4821 7.112 95.4821 8.888C95.4821 10.712 94.9141 12.112 93.7781 13.088C92.6581 14.064 91.1381 14.552 89.2181 14.552H85.8101V20H82.1621V3.224ZM88.6901 11.504C90.7541 11.504 91.7861 10.632 91.7861 8.888C91.7861 7.912 91.5061 7.232 90.9461 6.848C90.4021 6.464 89.6501 6.272 88.6901 6.272H85.8101V11.504H88.6901ZM100.146 20.36C98.7376 20.36 97.5856 20.008 96.6896 19.304C95.8096 18.584 95.3696 17.608 95.3696 16.376C95.3696 15.096 95.7936 14.104 96.6416 13.4C97.4896 12.68 98.6896 12.32 100.242 12.32C100.93 12.32 101.586 12.392 102.21 12.536C102.834 12.68 103.386 12.88 103.866 13.136V12.848C103.866 12.128 103.61 11.6 103.098 11.264C102.586 10.928 101.802 10.76 100.746 10.76C99.3376 10.76 98.0416 11.024 96.8576 11.552V8.912C97.3696 8.688 98.0336 8.504 98.8496 8.36C99.6656 8.2 100.482 8.12 101.298 8.12C103.378 8.12 104.93 8.552 105.954 9.416C106.978 10.264 107.49 11.456 107.49 12.992V20H104.082V18.944C103.106 19.888 101.794 20.36 100.146 20.36ZM101.13 17.96C101.722 17.96 102.258 17.848 102.738 17.624C103.218 17.4 103.594 17.088 103.866 16.688V15.536C103.05 14.992 102.154 14.72 101.178 14.72C100.506 14.72 99.9856 14.864 99.6176 15.152C99.2656 15.424 99.0896 15.832 99.0896 16.376C99.0896 16.888 99.2656 17.28 99.6176 17.552C99.9696 17.824 100.474 17.96 101.13 17.96ZM109.889 8.48H113.393V9.896C113.921 9.304 114.545 8.864 115.265 8.576C116.001 8.272 116.769 8.12 117.569 8.12C119.137 8.12 120.305 8.544 121.073 9.392C121.857 10.224 122.249 11.352 122.249 12.776V20H118.625V13.184C118.625 11.696 117.937 10.952 116.561 10.952C115.953 10.952 115.385 11.104 114.857 11.408C114.329 11.696 113.881 12.128 113.513 12.704V20H109.889V8.48ZM131.278 20.36C129.07 20.36 127.334 19.832 126.07 18.776C124.806 17.704 124.174 16.208 124.174 14.288C124.174 12.384 124.734 10.88 125.854 9.776C126.99 8.672 128.606 8.12 130.702 8.12C132.078 8.12 133.246 8.376 134.206 8.888C135.166 9.4 135.894 10.112 136.39 11.024C136.886 11.92 137.134 12.936 137.134 14.072V15.536H127.63C127.886 17.008 129.262 17.744 131.758 17.744C132.494 17.744 133.254 17.68 134.038 17.552C134.822 17.424 135.502 17.248 136.078 17.024V19.568C135.518 19.808 134.798 20 133.918 20.144C133.038 20.288 132.158 20.36 131.278 20.36ZM133.702 13.184C133.654 12.416 133.366 11.824 132.838 11.408C132.31 10.976 131.582 10.76 130.654 10.76C129.742 10.76 129.022 10.976 128.494 11.408C127.966 11.84 127.678 12.432 127.63 13.184H133.702ZM139.139 2.264H142.763V20H139.139V2.264Z" fill="#F4F4F4"/>
<path fill-rule="evenodd" clip-rule="evenodd" d="M0 4.85714C0 4.09938 0.301019 3.37266 0.836838 2.83684C1.37266 2.30102 2.09938 2 2.85714 2H20C20.7578 2 21.4845 2.30102 22.0203 2.83684C22.5561 3.37266 22.8571 4.09938 22.8571 4.85714V19.1429C22.8571 19.9006 22.5561 20.6273 22.0203 21.1632C21.4845 21.699 20.7578 22 20 22H2.85714C2.09938 22 1.37266 21.699 0.836838 21.1632C0.301019 20.6273 0 19.9006 0 19.1429V4.85714ZM4.70429 6.70429C4.97218 6.43647 5.33548 6.28602 5.71429 6.28602C6.09309 6.28602 6.45639 6.43647 6.72429 6.70429L11.01 10.99C11.2778 11.2579 11.4283 11.6212 11.4283 12C11.4283 12.3788 11.2778 12.7421 11.01 13.01L6.72429 17.2957C6.45485 17.5559 6.09399 17.6999 5.71943 17.6967C5.34486 17.6934 4.98656 17.5432 4.72169 17.2783C4.45682 17.0134 4.30658 16.6551 4.30332 16.2806C4.30007 15.906 4.44406 15.5451 4.70429 15.2757L7.98 12L4.70429 8.72429C4.43647 8.45639 4.28602 8.09309 4.28602 7.71429C4.28602 7.33548 4.43647 6.97218 4.70429 6.70429V6.70429ZM12.8571 14.8571C12.4783 14.8571 12.1149 15.0077 11.847 15.2756C11.5791 15.5435 11.4286 15.9068 11.4286 16.2857C11.4286 16.6646 11.5791 17.028 11.847 17.2959C12.1149 17.5638 12.4783 17.7143 12.8571 17.7143H17.1429C17.5217 17.7143 17.8851 17.5638 18.153 17.2959C18.4209 17.028 18.5714 16.6646 18.5714 16.2857C18.5714 15.9068 18.4209 15.5435 18.153 15.2756C17.8851 15.0077 17.5217 14.8571 17.1429 14.8571H12.8571Z" fill="#F4F4F4"/>
</svg>
